<?xml version="1.0" encoding="utf-8"?>
<!-- Generator: Adobe Illustrator 23.0.3, SVG Export Plug-In . SVG Version: 6.00 Build 0)  -->
<svg version="1.1" id="Suitcase" xmlns="http://www.w3.org/2000/svg" xmlns:xlink="http://www.w3.org/1999/xlink" x="0px" y="0px"
	 viewBox="0 0 20.5 17" style="enable-background:new 0 0 20.5 17;" xml:space="preserve">
<style type="text/css">
	.st0{fill:#7B96C4;}
</style>
<path class="st0" d="M18.2,6.1v-4c0-0.9-0.7-1.6-1.6-1.6H3.9C3,0.6,2.3,1.3,2.3,2.2v4C1.3,6.4,0.5,7.4,0.5,8.5v7.3
	c0,0.4,0.3,0.7,0.7,0.7H3c0.4,0,0.7-0.3,0.7-0.7v-1.1h13.2v1.1c0,0.4,0.3,0.7,0.7,0.7h1.8c0.4,0,0.7-0.3,0.7-0.7V8.5
	C20,7.4,19.3,6.4,18.2,6.1z M11.8,4.4c0-0.1,0.1-0.2,0.2-0.2h2.7c0.1,0,0.2,0.1,0.2,0.2V6h-3.2V4.4z M5.5,4.4c0-0.1,0.1-0.2,0.2-0.2
	h2.7c0.1,0,0.2,0.1,0.2,0.2V6H5.5V4.4z M14.8,2.9h-2.7c-0.9,0-1.6,0.7-1.6,1.6V6H10V4.4c0-0.9-0.7-1.6-1.6-1.6H5.7
	c-0.9,0-1.6,0.7-1.6,1.6V6H3.7V2.2c0-0.1,0.1-0.2,0.2-0.2h12.7c0.1,0,0.2,0.1,0.2,0.2V6h-0.5V4.4C16.4,3.6,15.7,2.9,14.8,2.9z
	 M1.8,10.6V8.5c0-0.6,0.5-1.1,1.1-1.1h14.5c0.6,0,1.1,0.5,1.1,1.1v2.1H1.8z M17.5,13.3H3c-0.4,0-0.7,0.3-0.7,0.7v1.1H1.8v-3.2h16.8
	v3.2h-0.5V14C18.2,13.6,17.9,13.3,17.5,13.3z"/>
</svg>
