<?xml version="1.0" encoding="utf-8"?>
<!-- Generator: Adobe Illustrator 23.0.3, SVG Export Plug-In . SVG Version: 6.00 Build 0)  -->
<svg version="1.1" id="Suitcase" xmlns="http://www.w3.org/2000/svg" xmlns:xlink="http://www.w3.org/1999/xlink" x="0px" y="0px"
	 viewBox="0 0 14.9 22.5" style="enable-background:new 0 0 14.9 22.5;" xml:space="preserve">
<style type="text/css">
	.st0{fill:#7B96C4;}
</style>
<g>
	<rect x="4.2" y="7.9" class="st0" width="1.3" height="9.3"/>
	<rect x="6.9" y="7.9" class="st0" width="1.3" height="9.3"/>
	<rect x="9.5" y="7.9" class="st0" width="1.3" height="9.3"/>
	<path class="st0" d="M14.2,6.5c0-1.1-0.8-2-1.9-2h-2.1V1.2c0-0.4-0.3-0.7-0.7-0.7h-4c-0.4,0-0.7,0.3-0.7,0.7v3.3H2.8
		c-1,0-1.9,0.9-1.9,2v11.9c0,0.9,0.6,1.7,1.4,1.9c-0.1,0.1-0.1,0.3-0.1,0.4c0,0.5,0.4,1,1,1c0.5,0,1-0.4,1-1c0-0.1,0-0.2-0.1-0.3
		h6.8c0,0.1-0.1,0.2-0.1,0.3c0,0.5,0.4,1,1,1c0.5,0,1-0.4,1-1c0-0.1,0-0.3-0.1-0.4c0.1,0,0.2,0,0.2-0.1l0.2-0.1c0.6-0.3,1-1,1-1.8
		l0-9.1V6.5z M6.2,1.9h2.7v2.7H6.2V1.9z M2.8,19.2c-0.3,0-0.5-0.3-0.5-0.7V6.5c0-0.4,0.2-0.7,0.5-0.7h9.6c0.3,0,0.5,0.3,0.5,0.7V9
		l0,9.5c0,0.4-0.2,0.7-0.5,0.7h-2.1H2.8z"/>
</g>
</svg>
