<?xml version="1.0" encoding="utf-8"?>
<!-- Generator: Adobe Illustrator 22.0.0, SVG Export Plug-In . SVG Version: 6.00 Build 0)  -->
<svg version="1.1" id="Layer_1" xmlns="http://www.w3.org/2000/svg" xmlns:xlink="http://www.w3.org/1999/xlink" x="0px" y="0px"
	 viewBox="0 0 22.2 18.7" style="enable-background:new 0 0 22.2 18.7;" xml:space="preserve">
<style type="text/css">
	.st0{fill:#7B96C4;}
</style>
<path class="st0" d="M20.6,4.7c-0.7-0.6-1.7-0.6-2.4,0.1l-1.7,1.8c-0.2-0.7-0.9-1.3-1.7-1.3h-3.1c-0.2,0-0.3-0.1-0.8-0.4
	c-1.5-1.4-4-1.4-5.5,0L4.1,6C3.7,5.8,3.1,5.8,2.6,6L1.2,6.6C0.9,6.8,0.8,7.1,1,7.4l3.5,7c0.2,0.3,0.5,0.4,0.8,0.3L6.6,14
	c0.7-0.3,1-1,1-1.6h7.1c1.3,0,2.5-0.6,3.3-1.6L20.9,7C21.4,6.4,21.3,5.3,20.6,4.7z M6.2,12.9l-0.8,0.4L2.3,7.4L3.1,7
	c0.3-0.1,0.7,0,0.8,0.3l2.5,4.8C6.6,12.4,6.5,12.8,6.2,12.9z M19.9,6.4L17,10c-0.6,0.7-1.5,1.2-2.4,1.2H7.2L5,6.8l1.2-1
	c1.2-1,2.8-1,4,0c0.7,0.6,1.1,0.7,1.5,0.7h3.1c0.3,0,0.6,0.3,0.6,0.6c0,0.3-0.2,0.6-0.6,0.6h-3c-0.3,0-0.6,0.3-0.6,0.6
	c0,0.3,0.3,0.6,0.6,0.6h3.5c0.5,0,1-0.2,1.4-0.6L19,5.6c0.2-0.3,0.6-0.2,0.9,0C20.1,5.8,20.1,6.2,19.9,6.4z"/>
</svg>
