<?xml version="1.0" encoding="utf-8"?>
<!-- Generator: Adobe Illustrator 22.0.0, SVG Export Plug-In . SVG Version: 6.00 Build 0)  -->
<svg version="1.1" id="Layer_1" xmlns="http://www.w3.org/2000/svg" xmlns:xlink="http://www.w3.org/1999/xlink" x="0px" y="0px"
	 viewBox="0 0 22.2 18.7" style="enable-background:new 0 0 22.2 18.7;" xml:space="preserve">
<style type="text/css">
	.st0{fill:#7B96C4;}
</style>
<g>
	<path class="st0" d="M14.2,12.8c-0.3-0.2-0.9-0.5-1.2-0.7v-0.6c0.9-0.6,1.6-1.5,1.8-2.7c0.7-0.1,1.1-0.7,1.1-1.3c0-0.5-0.4-0.9-1-1
		V6.1c0-0.2,0-2.1-1.2-3.3c-0.6-0.8-1.5-1.1-2.6-1.1S9,2.1,8.4,2.8C7.1,4,7.1,5.8,7.1,6.1v0.4c-0.6,0.1-1,0.5-1,1
		c0,0.6,0.5,1.2,1.1,1.3c0.3,1.2,0.9,2.1,1.9,2.7v0.6c-0.3,0.3-0.9,0.6-1.2,0.7c-3.2,1-3.3,3-3.3,3.1v0.8C4.6,16.9,4.8,17,5,17h12.1
		c0.2,0,0.4-0.2,0.4-0.4v-0.8C17.5,15.8,17.5,13.8,14.2,12.8z M9.5,12.8c0.1,0.1,0.2,0.2,0.3,0.2l-0.4,1.1c0,0.1,0,0.2,0,0.3
		l0.6,1.8H5.4v-0.4c0,0,0-0.4,0.3-0.8c0.6-0.8,1.6-1.3,2.4-1.5C8.2,13.6,9,13.1,9.5,12.8z M11.1,2.5c0.9,0,1.6,0.3,2.1,0.8
		C13.9,4,14.1,5,14.1,5.6c-1.7-0.1-3-1-3-1c0-0.1-0.1-0.1-0.2-0.1c-0.1,0-0.1,0-0.2,0c-0.1,0.1-0.2,0.3-0.2,0.4c0,0-0.1,0.1-0.3,0.2
		s-0.6,0.2-1,0.3C8.7,5.5,8.3,5.6,8,5.6C8.1,5,8.2,4,8.9,3.3l0,0C9.4,2.8,10.2,2.5,11.1,2.5z M8,6.4c0.3,0,0.8-0.1,1.3-0.2
		c0.9-0.1,1.5-0.3,1.8-0.7c0.6,0.4,1.7,0.9,3,1v1.3c0,0.2,0,0.4,0,0.6c-0.1,1.1-0.8,2-1.7,2.5c-0.4,0.2-0.8,0.3-1.3,0.3
		s-1-0.1-1.4-0.3C8.8,10.3,8.2,9.4,8,8.4C8,8.2,8,8,8,7.8V6.4z M10.5,12.4c-0.3-0.1-0.5-0.3-0.6-0.4v-0.2c0.4,0.1,0.8,0.2,1.2,0.2
		c0.4,0,0.8-0.1,1.2-0.2v0.2c-0.1,0.1-0.3,0.3-0.6,0.4C11.3,12.6,10.9,12.6,10.5,12.4z M10.5,13.3c0.3,0.1,0.7,0.1,1.1,0l0.3,0.9
		l-0.7,2h-0.3l-0.7-2L10.5,13.3z M12.7,14.3c0-0.1,0-0.2,0-0.3l-0.4-1.1c0.1-0.1,0.2-0.2,0.3-0.2c0.5,0.4,1.3,0.8,1.3,0.8
		c1.4,0.4,2.1,1.1,2.4,1.5s0.3,0.8,0.3,0.8v0.4h-4.5L12.7,14.3z M15.1,7.5c0,0.1,0,0.2-0.1,0.3c0-0.1,0-0.3,0-0.5
		C15.1,7.4,15.1,7.4,15.1,7.5z M7.2,7.8C7.1,7.7,7,7.6,7,7.5s0-0.1,0.1-0.1C7.2,7.5,7.2,7.6,7.2,7.8z"/>
	<polygon class="st0" points="13.1,14.8 12.9,14.8 12.9,14.9 12.9,15.6 12.9,15.8 13.1,15.8 15.4,15.8 15.6,15.8 15.6,15.6 
		15.6,14.9 15.6,14.8 15.4,14.8 	"/>
</g>
</svg>
