<?xml version="1.0" encoding="utf-8"?>
<!-- Generator: Adobe Illustrator 22.0.0, SVG Export Plug-In . SVG Version: 6.00 Build 0)  -->
<svg version="1.1" id="Layer_1" xmlns="http://www.w3.org/2000/svg" xmlns:xlink="http://www.w3.org/1999/xlink" x="0px" y="0px"
	 viewBox="0 0 22.2 18.7" style="enable-background:new 0 0 22.2 18.7;" xml:space="preserve">
<style type="text/css">
	.st0{fill:#7B96C4;}
</style>
<g>
	<path class="st0" d="M14.5,1.3h-7c-0.7,0-1.4,0.6-1.4,1.4V16c0,0.7,0.6,1.4,1.4,1.4h7.1c0.7,0,1.4-0.6,1.4-1.4V2.7
		C15.9,2,15.3,1.3,14.5,1.3z M14.8,14.2V16c0,0.2-0.1,0.3-0.3,0.3h-7c-0.2,0-0.3-0.1-0.3-0.3v-1.8H14.8z M14.8,4.4v8.8H7.2V4.4H14.8
		z M14.9,2.7v0.7H7.2V2.7c0-0.2,0.1-0.3,0.3-0.3h7.1C14.7,2.4,14.9,2.5,14.9,2.7z"/>
	<path class="st0" d="M10.2,15.9h1.6c0.3,0,0.5-0.2,0.5-0.5s-0.2-0.5-0.5-0.5h-1.6c-0.3,0-0.5,0.2-0.5,0.5
		C9.7,15.6,9.9,15.9,10.2,15.9z"/>
</g>
</svg>
