<?xml version="1.0" encoding="utf-8"?>
<!-- Generator: Adobe Illustrator 23.0.3, SVG Export Plug-In . SVG Version: 6.00 Build 0)  -->
<svg version="1.1" id="Calque_1" xmlns="http://www.w3.org/2000/svg" xmlns:xlink="http://www.w3.org/1999/xlink" x="0px" y="0px"
	 viewBox="0 0 32 32" style="enable-background:new 0 0 32 32;" xml:space="preserve">
<style type="text/css">
	.st0{fill:#FFFFFF;}
</style>
<path class="st0" d="M28,16.7c0-1.3-0.8-2.4-2.1-2.7l-0.1,0V9.2c0-1-0.8-1.7-1.7-1.7H9c-1,0-1.7,0.8-1.7,1.7V14l-0.1,0
	c-1.2,0.3-2.1,1.5-2.1,2.7v8.6c0,0.4,0.3,0.7,0.7,0.7h2.2c0.4,0,0.7-0.3,0.7-0.7v-1.5h15.9v1.5c0,0.4,0.3,0.7,0.7,0.7h2.2
	c0.4,0,0.7-0.3,0.7-0.7V16.7z M8.6,9.2c0-0.2,0.2-0.4,0.4-0.4h15.1c0.2,0,0.4,0.2,0.4,0.4v4.7h-0.8v-2c0-1-0.8-1.7-1.7-1.7h-3.2
	c-1,0-1.7,0.8-1.7,1.7v2h-0.8v-2c0-1-0.8-1.7-1.7-1.7h-3.2c-1,0-1.7,0.8-1.7,1.7v2H8.6V9.2z M22.4,11.9v2h-4v-2
	c0-0.2,0.2-0.4,0.4-0.4h3.2C22.2,11.4,22.4,11.6,22.4,11.9z M14.8,11.9v2h-4v-2c0-0.2,0.2-0.4,0.4-0.4h3.2
	C14.6,11.4,14.8,11.6,14.8,11.9z M26.7,24.6h-0.8v-1.5c0-0.4-0.3-0.7-0.7-0.7H7.9c-0.4,0-0.7,0.3-0.7,0.7v1.5H6.5v-4h20.2V24.6z
	 M26.7,19.3H6.5v-2.6c0-0.8,0.7-1.5,1.5-1.5h17.2c0.8,0,1.5,0.7,1.5,1.5V19.3z"/>
</svg>
