<?xml version="1.0" encoding="utf-8"?>
<!-- Generator: Adobe Illustrator 22.0.0, SVG Export Plug-In . SVG Version: 6.00 Build 0)  -->
<svg version="1.1" id="Layer_1" xmlns="http://www.w3.org/2000/svg" xmlns:xlink="http://www.w3.org/1999/xlink" x="0px" y="0px"
	 viewBox="0 0 22.2 18.7" style="enable-background:new 0 0 22.2 18.7;" xml:space="preserve">
<style type="text/css">
	.st0{fill:#7B96C4;}
</style>
<path class="st0" d="M18.2,8.3l-1.7-3.5c-0.1-0.2-0.3-0.3-0.6-0.3S15.4,4.8,15.3,5l-1.7,6.8l-2.1-5c-0.1-0.2-0.3-0.4-0.6-0.4
	s-0.5,0.1-0.6,0.4l-2,4.3l-1.1-2c0-0.2-0.2-0.3-0.5-0.3c-0.2,0-0.4,0-0.5,0.2l-2.1,2.3C4,11.4,4,11.5,4,11.7c0,0.3,0.3,0.6,0.6,0.6
	c0.2,0,0.4-0.1,0.5-0.2l1.5-1.7l1.2,2.3C7.9,12.9,8.1,13,8.4,13s0.5-0.1,0.6-0.4l1.9-4.2l2.4,5.3c0.1,0.2,0.3,0.4,0.6,0.4
	s0.5-0.2,0.6-0.5l1.6-6.7L17,8.8c0.1,0.2,0.3,0.3,0.6,0.3c0.3,0,0.6-0.3,0.6-0.6C18.2,8.5,18.2,8.4,18.2,8.3z"/>
</svg>
