<?xml version="1.0" encoding="utf-8"?>
<!-- Generator: Adobe Illustrator 22.0.0, SVG Export Plug-In . SVG Version: 6.00 Build 0)  -->
<svg version="1.1" id="Capa_1" xmlns="http://www.w3.org/2000/svg" xmlns:xlink="http://www.w3.org/1999/xlink" x="0px" y="0px"
	 viewBox="0 0 40.6 66.1" style="enable-background:new 0 0 40.6 66.1;" xml:space="preserve">
<style type="text/css">
	.st0{fill:#FFFFFF;}
	.st1{fill:#02A711;}
</style>
<g>
	<path class="st0" d="M35.9,19.5v30H3.4V12h22.3c-0.2-0.9-0.4-1.8-0.4-2.7c0-0.2,0-0.4,0-0.6h-22V5.3c0-1,0.8-1.8,1.8-1.8h22
		c1-1.4,2.3-2.5,3.8-3.3H5.1c-2.8,0-5,2.3-5,5.1v55.6c0,2.8,2.3,5.1,5,5.1h29c2.8,0,5-2.3,5-5.1V18.8C38.2,19.2,37.1,19.4,35.9,19.5
		z M35.9,60.9c0,1-0.8,1.8-1.8,1.8h-29c-1,0-1.8-0.8-1.8-1.8v-8.2h32.6V60.9z"/>
	<path class="st0" d="M16.3,59.5h6.6c0.9,0,1.6-0.7,1.6-1.7s-0.7-1.7-1.6-1.7h-6.6c-0.9,0-1.6,0.7-1.6,1.7S15.4,59.5,16.3,59.5z"/>
</g>
<circle class="st1" cx="35.4" cy="9.3" r="5"/>
</svg>
