<svg xmlns="http://www.w3.org/2000/svg" width="41" height="67">
    <path fill="#FFF" fill-rule="evenodd" d="M34.049 66.671H5.038C2.254 66.671 0 64.372 0 61.563V5.984C0 3.161 2.267.876 5.038.876h29.011c2.784 0 5.038 2.298 5.038 5.108V61.55c0 2.822-2.267 5.107-5.038 5.121zM3.248 61.55c0 1.008.809 1.814 1.79 1.814h28.998c.994 0 1.79-.82 1.79-1.814v-8.159H3.248v8.159zm0-11.439h32.578V12.718H3.248v37.393zM35.839 5.984a1.803 1.803 0 0 0-1.79-1.815H5.038c-.981 0-1.79.806-1.79 1.815v3.44h32.591v-3.44zM22.832 60.179h-6.59c-.901 0-1.631-.74-1.631-1.654 0-.914.73-1.653 1.631-1.653h6.59c.901 0 1.631.739 1.631 1.653s-.73 1.654-1.631 1.654z"/>
    <path fill="#DE1A00" fill-rule="evenodd" d="M35.387 5.591c2.696 0 4.881 2.199 4.881 4.911 0 2.712-2.185 4.911-4.881 4.911s-4.881-2.199-4.881-4.911c0-2.712 2.185-4.911 4.881-4.911z"/>
</svg>
