<svg xmlns="http://www.w3.org/2000/svg" width="17" height="17">
    <path fill="#7791BE" fill-rule="evenodd" d="M14.503 12.649c-1.604 1.394-3.736 2.162-6.003 2.162-.495 0-1.01-.042-1.53-.124L3.131 17v-3.858C1.14 11.727 0 9.64 0 7.406c0-1.982.887-3.844 2.497-5.244C4.102.768 6.233 0 8.5 0s4.399.768 6.003 2.162C16.113 3.562 17 5.424 17 7.406c0 1.981-.887 3.843-2.497 5.243zM8.5 1.335c-3.946 0-7.156 2.723-7.156 6.071 0 .987.287 1.968.83 2.835.527.842 1.293 1.578 2.215 2.129l.074.044-.03 2.222 2.277-1.359.057.012a8.396 8.396 0 0 0 1.733.187c3.946 0 7.156-2.723 7.156-6.07 0-3.348-3.21-6.071-7.156-6.071zm3.653 5.701H4.847a.67.67 0 0 1-.672-.667.67.67 0 0 1 .672-.667h7.306a.67.67 0 0 1 .672.667.67.67 0 0 1-.672.667zM5.891 8.811h5.218c.371 0 .672.3.672.668a.67.67 0 0 1-.672.667H5.891a.67.67 0 0 1-.672-.667.67.67 0 0 1 .672-.668z"/>
</svg>
