<?xml version="1.0" encoding="utf-8"?>
<!-- Generator: Adobe Illustrator 23.0.3, SVG Export Plug-In . SVG Version: 6.00 Build 0)  -->
<svg version="1.1" id="Layer_1" xmlns="http://www.w3.org/2000/svg" xmlns:xlink="http://www.w3.org/1999/xlink" x="0px" y="0px"
	 viewBox="0 0 22.2 18.7" style="enable-background:new 0 0 22.2 18.7;" xml:space="preserve">
<style type="text/css">
	.st0{fill:#7B96C4;}
</style>
<g>
	<g>
		<g>
			<path class="st0" d="M11,7.4c-0.2-0.2-0.5-0.2-0.7,0L8.6,9.2L7.9,8.5c-0.2-0.2-0.6-0.2-0.8,0S6.9,9,7.1,9.2l1.1,1.1
				c0.1,0.1,0.2,0.2,0.4,0.2c0.1,0,0.3-0.1,0.4-0.2l2.1-2.1C11.2,8,11.2,7.6,11,7.4z"/>
		</g>
	</g>
	<g>
		<g>
			<path class="st0" d="M11,11.6c-0.2-0.2-0.5-0.2-0.7,0l-1.7,1.7l-0.7-0.7c-0.2-0.2-0.5-0.2-0.7,0c-0.2,0.2-0.2,0.5,0,0.7l1.1,1.1
				c0.1,0.1,0.2,0.2,0.4,0.2c0.1,0,0.3-0.1,0.4-0.2l2.1-2.1C11.2,12.2,11.2,11.8,11,11.6z"/>
		</g>
	</g>
	<g>
		<g>
			<path class="st0" d="M14.9,8.3h-2.1c-0.3,0-0.6,0.3-0.6,0.5c0,0.3,0.2,0.5,0.5,0.5h2.1c0.3,0,0.5-0.2,0.5-0.5
				C15.4,8.6,15.2,8.3,14.9,8.3z"/>
		</g>
	</g>
	<g>
		<g>
			<path class="st0" d="M14.9,12.5h-2.1c-0.3,0-0.5,0.2-0.5,0.5s0.2,0.5,0.5,0.5h2.1c0.3,0,0.5-0.2,0.5-0.5S15.2,12.5,14.9,12.5z"/>
		</g>
	</g>
	<g>
		<g>
			<path class="st0" d="M16.5,3h-2.1V2.5c0-0.3-0.2-0.5-0.5-0.5h-1.2c-0.2-0.6-0.8-1.1-1.5-1.1S9.9,1.4,9.7,2H8.6
				C8.2,2,8.1,2.2,8.1,2.5V3H5.9C5.3,3,4.8,3.5,4.8,4.1v12.6c0,0.6,0.5,1.1,1.1,1.1h10.5c0.6,0,1.1-0.5,1.1-1.1V4.1
				C17.5,3.5,17,3,16.5,3z M9.1,3h1.1c0.2,0,0.5-0.2,0.5-0.5S10.9,2,11.2,2s0.5,0.2,0.5,0.5S11.9,3,12.2,3h1.1v1.1H9.1V3z
				 M16.5,16.7H5.9V4.1H8v0.5c0,0.3,0.2,0.5,0.5,0.5h5.3c0.3,0,0.5-0.2,0.5-0.5V4.1h2.1v12.6H16.5z"/>
		</g>
	</g>
</g>
</svg>
