<?xml version="1.0" encoding="utf-8"?>
<!-- Generator: Adobe Illustrator 23.0.3, SVG Export Plug-In . SVG Version: 6.00 Build 0)  -->
<svg version="1.1" id="Calque_1" xmlns="http://www.w3.org/2000/svg" xmlns:xlink="http://www.w3.org/1999/xlink" x="0px" y="0px"
	 viewBox="0 0 31 31" style="enable-background:new 0 0 31 31;" xml:space="preserve">
<style type="text/css">
	.st0{fill:#F1F2FD;}
	.st1{fill:#173E66;}
</style>
<g>
	<circle class="st0" cx="15.5" cy="15.5" r="15"/>
	<path class="st1" d="M23.5,18.3v0.3c0,0.3-0.2,0.5-0.5,0.5H9.2c-0.3,0-0.5-0.2-0.5-0.5v-0.3c0-0.3,0.2-0.5,0.5-0.5H23
		C23.2,17.8,23.5,18,23.5,18.3z M23,16.7c0,0.3-0.2,0.5-0.5,0.5H9.6c-0.3,0-0.5-0.2-0.5-0.5c0-3.5,2.6-6.4,5.9-6.9
		c0-0.1,0-0.2,0-0.3c0-0.6,0.5-1.1,1.1-1.1s1.1,0.5,1.1,1.1c0,0.1,0,0.2,0,0.3C20.5,10.4,23,13.2,23,16.7z M15.6,11.3
		c-0.1-0.3-0.3-0.4-0.6-0.4c-0.1,0-2,0.5-3.2,1.9c-1,1.2-1.2,2.7-1.2,2.8c0,0.3,0.2,0.5,0.5,0.5c0,0,0,0,0,0c0.3,0,0.5-0.2,0.5-0.5
		c0,0,0.1-1.3,0.9-2.2c1-1.2,2.6-1.6,2.6-1.6C15.5,11.8,15.6,11.5,15.6,11.3z"/>
</g>
</svg>
