<svg xmlns="http://www.w3.org/2000/svg" width="20" height="27">
    <path fill="#868C94" fill-rule="evenodd" d="M14.286 21.843c-1.046-.885-1.795-3.237-1.795-5.999 0-2.091-1.374-3.864-3.285-4.513A1.616 1.616 0 0 0 7.604 10c-.808 0-1.474.576-1.603 1.331-1.911.649-3.285 2.422-3.285 4.513 0 2.762-.748 5.113-1.795 5.999A2.578 2.578 0 0 0 0 23.812c0 .88.729 1.594 1.629 1.594h4.345c0 .88.729 1.594 1.63 1.594.9 0 1.629-.714 1.629-1.594h4.345c.9 0 1.629-.714 1.629-1.594a2.58 2.58 0 0 0-.921-1.969zM1.629 23.812c0-.293.131-.572.357-.764 1.455-1.23 2.359-3.991 2.359-7.204 0-1.758 1.462-3.188 3.259-3.188 1.796 0 3.258 1.43 3.258 3.188 0 3.213.904 5.974 2.359 7.205.227.192.357.47.357.763H1.629z"/>
    <path fill="#CA2A43" fill-rule="evenodd" d="M12.58.001c4.102 0 7.427 3.276 7.427 7.317 0 4.04-3.325 7.316-7.427 7.316-4.101 0-7.426-3.276-7.426-7.316 0-4.041 3.325-7.317 7.426-7.317z"/>
</svg>
