<svg xmlns="http://www.w3.org/2000/svg" width="22" height="27">
    <path fill="#868C94" fill-rule="evenodd" d="M17.535 13.002a1.547 1.547 0 0 0-1.119-.454H1.843c-.436 0-.809.152-1.119.454-.31.303-.465.667-.465 1.092v10.512c0 .425.155.789.465 1.091.31.303.683.455 1.119.455h14.573c.436 0 .809-.152 1.119-.455.31-.302.465-.666.465-1.091V14.094c0-.425-.155-.789-.465-1.092zm-.802 11.604a.296.296 0 0 1-.094.217.31.31 0 0 1-.223.092H1.843a.31.31 0 0 1-.223-.092.293.293 0 0 1-.094-.217v-7.42c.211.232.439.444.683.637a137.336 137.336 0 0 1 4.217 3.266c.337.277.611.493.822.647.211.155.497.311.857.469.359.158.698.236 1.014.236h.02a2.53 2.53 0 0 0 1.015-.236 4.57 4.57 0 0 0 .856-.469c.212-.154.486-.37.822-.647 1.043-.85 2.449-1.939 4.218-3.266.244-.193.472-.405.683-.637v7.42zm0-10.261v.107c0 .38-.154.803-.461 1.27-.306.467-.638.839-.995 1.116-1.274.979-2.597 2-3.97 3.063l-.346.284c-.192.158-.343.279-.456.363a9.04 9.04 0 0 1-.44.304 2.682 2.682 0 0 1-.5.266 1.2 1.2 0 0 1-.426.087h-.02c-.132 0-.273-.029-.425-.087a2.651 2.651 0 0 1-.5-.266 8.663 8.663 0 0 1-.441-.304 12.912 12.912 0 0 1-.455-.363l-.347-.284a1389.034 1389.034 0 0 0-3.97-3.063c-.97-.747-1.455-1.662-1.455-2.744a.29.29 0 0 1 .094-.217.31.31 0 0 1 .223-.092h14.573c.053.029.099.037.139.024.039-.013.069.011.089.073.019.061.038.09.054.086.017-.003.027.037.03.121l.005.126v.13z"/>
    <path fill="#CA2A43" fill-rule="evenodd" d="M14.58.001c4.102 0 7.427 3.276 7.427 7.317 0 4.04-3.325 7.316-7.427 7.316-4.101 0-7.426-3.276-7.426-7.316 0-4.041 3.325-7.317 7.426-7.317z"/>
</svg>
