<?xml version="1.0" encoding="utf-8"?>
<!-- Generator: Adobe Illustrator 23.0.3, SVG Export Plug-In . SVG Version: 6.00 Build 0)  -->
<svg version="1.1" id="Calque_1" xmlns="http://www.w3.org/2000/svg" xmlns:xlink="http://www.w3.org/1999/xlink" x="0px" y="0px"
	 viewBox="0 0 15.6 17.5" style="enable-background:new 0 0 15.6 17.5;" xml:space="preserve">
<style type="text/css">
	.st0{fill:#868C94;}
</style>
<g>
	<g>
		<path class="st0" d="M14.5,12.1c-1-0.9-1.8-3.2-1.8-6c0-2.1-1.4-3.9-3.3-4.5C9.3,0.8,8.6,0.3,7.8,0.3S6.3,0.9,6.2,1.6
			C4.3,2.2,2.9,4,2.9,6.1c0,2.8-0.7,5.1-1.8,6c-0.6,0.5-0.9,1.2-0.9,2c0,0.9,0.7,1.6,1.6,1.6h4.3c0,0.9,0.7,1.6,1.6,1.6
			s1.6-0.7,1.6-1.6h4.3c0.9,0,1.6-0.7,1.6-1.6C15.4,13.3,15.1,12.6,14.5,12.1z M1.8,14.1c0-0.3,0.1-0.6,0.4-0.8
			c1.5-1.2,2.4-4,2.4-7.2c0-1.8,1.5-3.2,3.3-3.2s3.3,1.4,3.3,3.2c0,3.2,0.9,6,2.4,7.2c0.2,0.2,0.4,0.5,0.4,0.8H1.8z"/>
	</g>
</g>
</svg>
