<?xml version="1.0" encoding="utf-8"?>
<!-- Generator: Adobe Illustrator 23.0.3, SVG Export Plug-In . SVG Version: 6.00 Build 0)  -->
<svg version="1.1" id="Calque_1" xmlns="http://www.w3.org/2000/svg" xmlns:xlink="http://www.w3.org/1999/xlink" x="0px" y="0px"
	 viewBox="0 0 31 31" style="enable-background:new 0 0 31 31;" xml:space="preserve">
<style type="text/css">
	.st0{fill:#F1F2FD;}
	.st1{fill:#173E66;}
</style>
<circle class="st0" cx="15.5" cy="15.5" r="15"/>
<path class="st1" d="M24,19.4l-1.3-8.1c-0.1-0.3-0.3-0.6-0.6-0.6H8.9c-0.3,0-0.6,0.2-0.6,0.6L7,19.4c0,0.2,0,0.4,0.1,0.5
	c0.1,0.1,0.3,0.2,0.5,0.2h15.8c0.2,0,0.4-0.1,0.5-0.2C24,19.8,24.1,19.6,24,19.4z M8.4,18.9l0.8-6.1l0.9,6.1H8.4z M20.1,16.2h-7.9
	c-0.4,0-0.7-0.3-0.7-0.7s0.3-0.7,0.7-0.7h7.9c0.4,0,0.7,0.3,0.7,0.7S20.5,16.2,20.1,16.2z"/>
</svg>
