<?xml version="1.0" encoding="utf-8"?>
<!-- Generator: Adobe Illustrator 22.0.0, SVG Export Plug-In . SVG Version: 6.00 Build 0)  -->
<svg version="1.1" id="Capa_1" xmlns="http://www.w3.org/2000/svg" xmlns:xlink="http://www.w3.org/1999/xlink" x="0px" y="0px"
	 viewBox="0 0 13.6 8.7" style="enable-background:new 0 0 13.6 8.7;" xml:space="preserve">
<style type="text/css">
	.st0{fill:#FFFFFF;}
</style>
<g>
	<path class="st0" d="M6.8,0c0.4,0,0.8,0.3,0.8,0.8c0,0.4-0.3,0.8-0.8,0.8c-0.4,0-0.8-0.3-0.8-0.8C6.1,0.3,6.4,0,6.8,0z"/>
	<g>
		<rect y="7.9" class="st0" width="13.6" height="0.8"/>
		<path class="st0" d="M0.8,7.6c0-3.3,2.7-6.1,6.1-6.1c3.3,0,6.1,2.7,6.1,6.1H0.8z M11.9,7.3c0,0-0.8-3.8-3-4.5
			c1.5,1.5,1.5,4.5,1.5,4.5H11.9z"/>
	</g>
</g>
</svg>
