<svg xmlns="http://www.w3.org/2000/svg" width="13" height="12">
    <path fill="#FFF" fill-rule="evenodd" d="M7.206 2.515a.806.806 0 0 0-1.139 0l-.285.285-3.988 3.99.001.001-.126.126s-.4.403-1.305 3.322l-.019.061-.049.16-.044.145-.038.124a63.02 63.02 0 0 1-.087.293c-.065.221-.224.718-.044.898.173.173.675.021.895-.045l.292-.087.129-.039.137-.042.167-.051.049-.016c2.779-.864 3.278-1.27 3.32-1.307v-.001l.003-.002.129-.129.008.008L9.2 6.22l.285-.285a.806.806 0 0 0 0-1.14l-2.279-2.28zm-2.59 7.299l-.013.009-.009.006-.011.006a.067.067 0 0 1-.011.007c-.133.079-.522.284-1.467.626l-.357.126L1.405 9.25l.126-.359c.342-.948.546-1.338.625-1.471l.006-.009a.127.127 0 0 1 .013-.021l.009-.014.098-.098 2.435 2.435-.101.101zm7.148-7.299L9.485.236a.805.805 0 0 0-1.139 0l-.57.57a.805.805 0 0 0 0 1.139l2.279 2.28a.805.805 0 0 0 1.139 0l.57-.57a.808.808 0 0 0 0-1.14z"/>
</svg>
