<svg xmlns="http://www.w3.org/2000/svg" width="44" height="44">
    <path fill="#468DC5" fill-rule="evenodd" d="M22 44C9.85 44 0 34.15 0 22S9.85 0 22 0c12.145.014 21.986 9.855 22 22 0 12.15-9.85 22-22 22zm0-42.533C10.66 1.467 1.467 10.66 1.467 22c0 11.34 9.193 20.533 20.533 20.533C33.335 42.52 42.52 33.335 42.533 22 42.533 10.66 33.34 1.467 22 1.467zm15.369 28.209c-.818-.034-1.732-.295-2.353-.508l-.561 4.281-.003.018-.003.029c-.117.888-.975 1.504-2.024 1.504a2.71 2.71 0 0 1-1.791-.662c-.449-.399-.669-.916-.603-1.418.066-.502.411-.945.948-1.216.46-.231 1.01-.32 1.551-.249.342.045.656.149.926.298l.458-3.498a.604.604 0 0 1 .84-.477c.015.006 1.514.643 2.666.691a.604.604 0 1 1-.051 1.207zm-4.996 2.976a1.665 1.665 0 0 0-.2-.012c-.232 0-.464.05-.648.143-.168.084-.281.197-.293.294-.013.096.067.234.207.359.199.176.493.305.786.343.543.071.988-.174 1.023-.44.035-.265-.332-.616-.875-.687zm1.825-19.322a2.658 2.658 0 0 0-1.9 1.921.604.604 0 0 1-.587.457.604.604 0 0 1-.587-.457 2.658 2.658 0 0 0-1.901-1.921.615.615 0 0 1 .001-1.19 2.655 2.655 0 0 0 1.9-1.92.604.604 0 0 1 .587-.457c.278 0 .52.188.587.457a2.658 2.658 0 0 0 1.901 1.921.614.614 0 0 1-.001 1.189zm-2.487-1.535a3.863 3.863 0 0 1-.943.94c.366.257.686.576.943.941.257-.365.577-.684.943-.941a3.863 3.863 0 0 1-.943-.94zm.606 12.865c0 5.437-4.434 9.859-9.884 9.859a9.848 9.848 0 0 1-5.78-1.866.632.632 0 0 1-.11-.08c-2.422-1.799-3.994-4.676-3.994-7.913 0-3.236 1.571-6.112 3.993-7.911a.615.615 0 0 1 .114-.083 9.868 9.868 0 0 1 3.607-1.625v-1.233c0-.918.685-1.649 1.564-1.796V8.136a.605.605 0 0 1 1.211 0v3.876c.879.147 1.564.878 1.564 1.796v1.233c4.41.989 7.715 4.926 7.715 9.619zm-18.353-1.868a8.641 8.641 0 0 0 .013 3.797l.015.002 1.439.283a28.977 28.977 0 0 1-.004-4.38l-1.431.293a.177.177 0 0 1-.032.005zm.404-1.314l1.112-.227.069-.014c.09-.761.211-1.52.363-2.274a8.656 8.656 0 0 0-1.544 2.515zm1.186 6.651l-.069-.013-1.094-.215a8.66 8.66 0 0 0 1.521 2.457 29.113 29.113 0 0 1-.358-2.229zm1.111-1.026c.843.142 1.688.253 2.535.333-.07-.989-.104-1.98-.102-2.971.003-.852.033-1.704.089-2.555-.844.083-1.686.198-2.526.346a27.725 27.725 0 0 0 .004 4.847zm.816-9.541a27.684 27.684 0 0 0-.683 3.445 34.507 34.507 0 0 1 2.487-.32 41.21 41.21 0 0 1 .645-4.31 8.654 8.654 0 0 0-2.449 1.185zm1.824 11.096a35.886 35.886 0 0 1-2.502-.308 27.7 27.7 0 0 0 .678 3.409c.751.523 1.589.93 2.487 1.196a40.977 40.977 0 0 1-.663-4.297zm11.583-2.069a8.635 8.635 0 0 0 .013-3.797.177.177 0 0 1-.032-.005l-1.548-.316a28.935 28.935 0 0 1-.003 4.426l1.555-.306.015-.002zm-3.644 5.265c.309-1.149.543-2.313.701-3.486-.831.129-1.665.23-2.499.301a41.103 41.103 0 0 1-.671 4.321 8.605 8.605 0 0 0 2.469-1.136zm-5.977 1.379a8.782 8.782 0 0 0 2.213.015l.002-.008c.331-1.477.577-2.98.738-4.489a35.551 35.551 0 0 1-3.686-.006c.158 1.51.402 3.01.733 4.488zm2.124-19.425a.65.65 0 0 0-.65-.648h-.616a.65.65 0 0 0-.651.648v1.04a10.13 10.13 0 0 1 1.917 0v-1.04zm.128 2.269a8.845 8.845 0 0 0-1.086-.068c-.409 0-.811.03-1.205.084a39.5 39.5 0 0 0-.714 4.503 34.304 34.304 0 0 1 3.726-.006 39.913 39.913 0 0 0-.721-4.513zm3.725 1.389a8.651 8.651 0 0 0-2.431-1.125 40.91 40.91 0 0 1 .652 4.335c.83.074 1.658.178 2.485.312a27.65 27.65 0 0 0-.706-3.522zm.843 4.77a33.328 33.328 0 0 0-2.523-.337c.012.186.024.371.033.557a.605.605 0 0 1-.573.635h-.032a.605.605 0 0 1-.604-.572 33.67 33.67 0 0 0-.044-.713 33.065 33.065 0 0 0-3.932.006 39.958 39.958 0 0 0 .014 5.717c1.3.076 2.603.078 3.904.006.015-.208.03-.417.042-.626a.604.604 0 0 1 .64-.567.604.604 0 0 1 .569.638c-.009.156-.019.311-.03.466.845-.076 1.69-.184 2.533-.324.145-1.625.146-3.261.003-4.886zm2.387 5.665l-1.094.215-.187.036a28.559 28.559 0 0 1-.389 2.371 8.678 8.678 0 0 0 1.67-2.622zm-1.275-6.687l.186.037 1.113.227a8.674 8.674 0 0 0-1.693-2.68c.165.801.297 1.606.394 2.416zm-4.194 4.05a.608.608 0 0 1-.606-.603.608.608 0 0 1 .606-.605c.159 0 .315.065.428.177a.611.611 0 0 1 .177.428.61.61 0 0 1-.177.427.612.612 0 0 1-.428.176zM22.433 6.208a.61.61 0 0 1-.606-.604.606.606 0 0 1 1.211 0 .61.61 0 0 1-.177.427.613.613 0 0 1-.428.177zm-6.09 9.313a2.667 2.667 0 0 1-1.135.259c-.721 0-1.364-.315-1.632-.878-.213-.449-.164-.997.134-1.504.255-.432.66-.795 1.141-1.022.295-.14.598-.218.891-.241l-1.193-2.514-3.556 2.042 1.679 3.539.017.041.032.063c.211.444.186.974-.068 1.455a2.386 2.386 0 0 1-1.102 1.022c-.363.171-.758.26-1.144.26a2.41 2.41 0 0 1-.371-.028c-.582-.091-1.038-.401-1.251-.851-.214-.449-.165-.998.133-1.504.255-.432.66-.795 1.141-1.022a2.53 2.53 0 0 1 .893-.238l-1.293-2.724a.603.603 0 0 1 .245-.781l4.609-2.648a.61.61 0 0 1 .85.265l2.101 4.429a.64.64 0 0 1 .016.039c.011.021.023.042.033.064.418.882-.096 1.97-1.17 2.477zm-5.766.209a1.45 1.45 0 0 0-.615.542c-.088.15-.12.297-.083.376.037.078.172.147.344.173.252.04.554-.009.81-.13a1.19 1.19 0 0 0 .548-.492c.044-.084.109-.243.045-.376-.063-.133-.227-.185-.32-.204a.921.921 0 0 0-.185-.018c-.175 0-.366.044-.544.129zm5.841-2.169c-.064-.136-.258-.222-.504-.222-.166 0-.356.04-.545.129a1.45 1.45 0 0 0-.615.542c-.088.15-.12.297-.083.376.09.19.643.285 1.154.044.47-.222.701-.642.593-.869zM9.36 29.492a.605.605 0 0 1 1.175 0 2.655 2.655 0 0 0 1.9 1.921.614.614 0 0 1 .001 1.189 2.655 2.655 0 0 0-1.901 1.921.606.606 0 0 1-1.175 0 2.656 2.656 0 0 0-1.901-1.921.616.616 0 0 1 0-1.189 2.656 2.656 0 0 0 1.901-1.921zm.587 3.456a3.88 3.88 0 0 1 .943-.94 3.902 3.902 0 0 1-.943-.941 3.867 3.867 0 0 1-.943.941c.367.256.686.575.943.94z"/>
</svg>
