<svg xmlns="http://www.w3.org/2000/svg" width="44" height="44">
    <path fill="#468DC5" fill-rule="evenodd" d="M22 44C9.85 44 0 34.15 0 22S9.85 0 22 0c12.145.014 21.986 9.855 22 22 0 12.15-9.85 22-22 22zm0-42.533C10.66 1.467 1.467 10.66 1.467 22c0 11.34 9.193 20.533 20.533 20.533C33.335 42.52 42.52 33.335 42.533 22 42.533 10.66 33.34 1.467 22 1.467zm14.25 25.727V33h-1.1v-5.806h-4.4c-.001.961-.739 1.74-1.65 1.741V33H28v-4.065h-3.3V33h-1.1v-4.065a1.587 1.587 0 0 1-1.1-.453 1.587 1.587 0 0 1-1.1.453V33h-1.1v-4.065H17V33h-1.1v-4.065c-.911-.001-1.649-.78-1.65-1.741h-4.4V33h-1.1v-5.806C7.232 27.192 6.002 25.893 6 24.29v-7.548C6 15.78 6.739 15 7.65 15c.911 0 1.65.78 1.65 1.742v6.968h4.95v-1.162H11.5c-.607 0-1.099-.52-1.1-1.161v-1.161c.001-.641.493-1.161 1.1-1.161h2.75v-2.323c.001-.962.739-1.741 1.65-1.742h5.5c.407.001.799.163 1.1.453.301-.29.693-.452 1.1-.453h5.5c.911.001 1.649.78 1.65 1.742v2.323h2.75c.607 0 1.099.52 1.1 1.161v1.161c-.001.641-.493 1.161-1.1 1.161h-2.75v1.162h4.95v-6.968c.001-.962.739-1.741 1.65-1.742.911.001 1.649.78 1.65 1.742v7.548c-.002 1.603-1.232 2.902-2.75 2.904zm-22-6.968H11.5v1.161h2.75v-1.161zm0 4.645H9.3c-.607-.001-1.099-.52-1.1-1.161v-6.968c0-.321-.246-.581-.55-.581-.304 0-.55.26-.55.581v7.548c.001.962.739 1.741 1.65 1.742h5.5v-1.161zm7.7-8.129a.567.567 0 0 0-.55-.581h-5.5a.567.567 0 0 0-.55.581v10.452c0 .32.246.58.55.58h5.5c.304 0 .55-.26.55-.58V16.742zm7.7 0a.567.567 0 0 0-.55-.581h-5.5a.567.567 0 0 0-.55.581v10.452c0 .32.246.58.55.58h5.5c.304 0 .55-.26.55-.58V16.742zm3.85 4.645v-1.161h-2.75v1.161h2.75zm4.4-4.645c0-.321-.246-.581-.55-.581-.304 0-.55.26-.55.581v6.968c-.001.641-.493 1.16-1.1 1.161h-4.95v1.161h5.5c.911-.001 1.649-.78 1.65-1.742v-7.548zM17.085 9.693h.001-.004.003z"/>
</svg>
