<svg xmlns="http://www.w3.org/2000/svg" width="44" height="44">
    <path fill="#468DC5" fill-rule="evenodd" d="M22 44C9.85 44 0 34.15 0 22S9.85 0 22 0c12.145.014 21.986 9.855 22 22 0 12.15-9.85 22-22 22zm0-42.533C10.66 1.467 1.467 10.66 1.467 22c0 11.34 9.193 20.533 20.533 20.533C33.335 42.52 42.52 33.335 42.533 22 42.533 10.66 33.34 1.467 22 1.467zm-9.461 13.627a.508.508 0 1 1 0 1.016.508.508 0 0 1 0-1.016zM31.227 35a4.77 4.77 0 0 1-3.905-2.031h-4.789a.508.508 0 0 1 0-1.016h4.243a4.76 4.76 0 0 1-.313-1.422H12.945a.508.508 0 0 1-.508-.508V18.039c0-.28.228-.508.508-.508h18.891c.28 0 .508.228.508.508v7.546c.51.123.989.329 1.422.601V16.109H14.57a.508.508 0 1 1 0-1.015h19.196V12.58a.534.534 0 0 0-.534-.533h-3.681v.508a1.524 1.524 0 0 1-3.047 0v-.508h-8.227v.508a1.524 1.524 0 0 1-3.047 0v-.508h-3.681a.533.533 0 0 0-.533.533v18.84c0 .294.239.533.533.533h6.921a.507.507 0 1 1 0 1.016h-6.921A1.55 1.55 0 0 1 10 31.42V12.58a1.55 1.55 0 0 1 1.549-1.549h3.681v-.508a1.524 1.524 0 0 1 3.047 0v.508h8.227v-.508a1.524 1.524 0 0 1 3.047 0v.508h3.681a1.55 1.55 0 0 1 1.549 1.549v14.464A4.754 4.754 0 0 1 36 30.227 4.778 4.778 0 0 1 31.227 35zM17.262 10.523a.508.508 0 0 0-1.016 0v2.032a.508.508 0 0 0 1.016 0v-2.032zm11.273 0a.508.508 0 0 0-1.015 0v2.032a.507.507 0 0 0 1.015 0v-2.032zm-12.319 8.024h-2.763v2.996h2.763v-2.996zm0 4.012h-2.763v2.945h2.763v-2.945zm0 3.961h-2.763v2.996h2.763V26.52zm3.778-7.973h-2.763v2.996h2.763v-2.996zm0 4.012h-2.763v2.945h2.763v-2.945zm0 3.961h-2.763v2.996h2.763V26.52zm3.778-7.973h-2.763v2.996h2.763v-2.996zm0 4.012h-2.763v2.945h2.763v-2.945zm0 3.961h-2.763v2.996h2.763V26.52zm3.778-7.973h-2.763v2.996h2.763v-2.996zm0 4.012h-2.763v2.945h2.763v-2.945zm0 3.961h-2.763v2.996h1.719a4.769 4.769 0 0 1 1.044-2.331v-.665zm3.778-7.973h-2.762v2.996h2.762v-2.996zm0 4.012h-2.762v2.945h1.965c.227-.033.459-.051.696-.051l.101.001v-2.895zm-.101 3.91a3.761 3.761 0 0 0-3.758 3.758 3.761 3.761 0 0 0 3.758 3.757 3.76 3.76 0 0 0 3.757-3.757 3.761 3.761 0 0 0-3.757-3.758zm.257 5.175a.507.507 0 0 1-.718 0l-1.058-1.058a.508.508 0 0 1 .718-.719l.699.699 1.571-1.57a.508.508 0 0 1 .718.718l-1.93 1.93zm-10.982.309a.511.511 0 0 1 .359.867.516.516 0 0 1-.359.149.512.512 0 0 1-.508-.508.508.508 0 0 1 .508-.508z"/>
</svg>
