<svg xmlns="http://www.w3.org/2000/svg" width="44" height="44">
    <path fill="#468DC5" fill-rule="evenodd" d="M22 44C9.85 44 0 34.15 0 22S9.85 0 22 0c12.145.014 21.986 9.855 22 22 0 12.15-9.85 22-22 22zm0-42.533C10.66 1.467 1.467 10.66 1.467 22c0 11.34 9.193 20.533 20.533 20.533C33.335 42.52 42.52 33.335 42.533 22 42.533 10.66 33.34 1.467 22 1.467zM33.627 33H11.373C10.061 33 9 31.96 9 30.692V15.308C9 14.036 10.066 13 11.373 13h22.254C34.939 13 36 14.04 36 15.308v15.384C36 31.968 34.931 33 33.627 33zm-.328-1.538l-7.582-7.374-2.605 2.533a.807.807 0 0 1-1.116.002l-2.672-2.575-7.623 7.414h21.598zM10.582 15.619v14.755l7.619-7.409-7.619-7.346zm1.126-1.081L22.55 24.991l10.749-10.453H11.708zm22.71 1.088L26.835 23l7.583 7.374V15.626z"/>
</svg>
