<svg xmlns="http://www.w3.org/2000/svg" width="44" height="44">
    <path fill="#468DC5" fill-rule="evenodd" d="M22 44C9.85 44 0 34.15 0 22S9.85 0 22 0c12.145.014 21.986 9.855 22 22 0 12.15-9.85 22-22 22zm0-42.533C10.66 1.467 1.467 10.66 1.467 22c0 11.34 9.193 20.533 20.533 20.533C33.335 42.52 42.52 33.335 42.533 22 42.533 10.66 33.34 1.467 22 1.467zm10.891 14.689L24.176 26.71c-.061.123-.182.246-.484.307v7.548l2.602 1.595c.363.245.545.675.424 1.105-.121.429-.484.736-.908.736h-6.778c-.424 0-.787-.307-.908-.736-.121-.43.061-.86.424-1.105l2.602-1.595v-7.548c-.182-.122-.303-.245-.424-.368l-8.714-10.554-1.937-2.332c-.121-.123-.121-.368-.061-.552.122-.184.303-.307.485-.307h2.602l-.847-1.043c-.182-.245-.182-.552.06-.736.242-.184.545-.184.726.061l1.392 1.779h20.032c.242 0 .424.123.484.307.121.184.061.368-.06.553l-1.997 2.331zm-13.496 20.74h6.233l-2.602-1.595c-.121-.061-.242-.245-.242-.43v-7.424a.834.834 0 0 1-.545 0v7.424c0 .185-.06.307-.242.43l-2.602 1.595zm2.179-10.861c.242.246.544.43.907.43s.666-.184.908-.43l7.989-9.756H17.216l2.724 3.375c.302-.184.605-.246.968-.246 1.21 0 2.179.982 2.179 2.209 0 .553-.182.982-.424 1.35l1.271 1.596c.181.245.181.552-.061.736a.458.458 0 0 1-.302.123.548.548 0 0 1-.424-.184l-1.271-1.596c-.302.184-.605.246-.968.246-1.211 0-2.179-.982-2.179-2.209 0-.552.182-.982.424-1.35l-3.268-4.05h-2.3l7.989 9.756zm-1.816-4.356c0 .675.545 1.166 1.15 1.166.666 0 1.15-.553 1.15-1.166 0-.675-.545-1.166-1.15-1.166-.666 0-1.15.552-1.15 1.166zm-5.81-7.732h-2.36l1.089 1.289h2.3l-1.029-1.289zm1.392 0l1.029 1.289h15.916l1.09-1.289H15.34zm8.594 8.591c0-.246.181-.43.423-.43.182-.061.364.062.485.246s.06.429-.061.613c-.181.123-.424.184-.605.123-.182-.123-.363-.368-.242-.552zm3.873-4.909a.545.545 0 0 1 .424-.184c.181 0 .302.061.423.184.182.245.182.552-.06.736l-2.36 2.884a.65.65 0 0 1-.424.184c-.061 0-.182-.061-.303-.122-.242-.184-.302-.553-.121-.737l2.421-2.945z"/>
</svg>
