<?xml version="1.0" encoding="utf-8"?>
<!-- Generator: Adobe Illustrator 22.0.0, SVG Export Plug-In . SVG Version: 6.00 Build 0)  -->
<svg version="1.1" id="Capa_1" xmlns="http://www.w3.org/2000/svg" xmlns:xlink="http://www.w3.org/1999/xlink" x="0px" y="0px"
	 viewBox="0 0 16.3 9" style="enable-background:new 0 0 16.3 9;" xml:space="preserve">
<style type="text/css">
	.st0{fill:#FFFFFF;}
</style>
<g>
	<g>
		<g>
			<path class="st0" d="M16.3,8.2L15,0.5C15,0.2,14.7,0,14.4,0h-12l0.1,0.6l0.1,0.6l1,6.5l0.1,0.6L3.9,9h11.8c0.2,0,0.4-0.1,0.5-0.2
				C16.2,8.6,16.3,8.4,16.3,8.2z M12.5,5.1H6.3c-0.3,0-0.6-0.3-0.6-0.6c0-0.3,0.3-0.6,0.6-0.6h6.3c0.3,0,0.6,0.3,0.6,0.6
				C13.1,4.8,12.9,5.1,12.5,5.1z"/>
		</g>
	</g>
	<g>
		<g>
			<path class="st0" d="M2.5,8.3L2.4,7.7L1.9,4.5l-0.3-2l-0.3-2L0,8.2c0,0.2,0,0.4,0.1,0.5C0.3,8.9,0.4,9,0.6,9h2L2.5,8.3z"/>
		</g>
	</g>
</g>
</svg>
