<?xml version="1.0" encoding="utf-8"?>
<!-- Generator: Adobe Illustrator 22.0.0, SVG Export Plug-In . SVG Version: 6.00 Build 0)  -->
<svg version="1.1" id="Capa_1" xmlns="http://www.w3.org/2000/svg" xmlns:xlink="http://www.w3.org/1999/xlink" x="0px" y="0px"
	 viewBox="0 0 15.6 9.3" style="enable-background:new 0 0 15.6 9.3;" xml:space="preserve">
<style type="text/css">
	.st0{fill:#FFFFFF;}
</style>
<g>
	<path class="st0" d="M15.4,4.3C13.5,1.6,10.8,0,7.8,0S2.1,1.6,0.1,4.3C0,4.5,0,4.8,0.1,5c2,2.6,4.7,4.3,7.7,4.3s5.7-1.6,7.7-4.3
		C15.6,4.8,15.6,4.5,15.4,4.3z M11,4.9C10.9,6.5,9.6,7.8,8,7.9C6,8,4.4,6.4,4.5,4.4c0.1-1.6,1.4-3,3.1-3.1C9.5,1.2,11.2,2.9,11,4.9z
		"/>
	<path class="st0" d="M8.8,4.5c-0.5,0-1-0.4-1-1c0-0.2,0.1-0.5,0.2-0.6c-0.1,0-0.3,0-0.4,0C6.8,2.9,6.1,3.6,6,4.5
		C6,5.6,6.8,6.5,7.9,6.4c0.9-0.1,1.6-0.8,1.6-1.6c0-0.2,0-0.3,0-0.5C9.3,4.4,9.1,4.5,8.8,4.5z"/>
</g>
</svg>
