<svg xmlns="http://www.w3.org/2000/svg" width="51" height="51">
    <path fill="#06101F" fill-rule="evenodd" d="M25.527.943c13.838 0 25.055 11.107 25.055 24.809 0 13.702-11.217 24.809-25.055 24.809S.471 39.454.471 25.752C.471 12.05 11.689.943 25.527.943z"/>
    <path fill="#FFF" fill-rule="evenodd" d="M34.329 23.349h-.019a5.542 5.542 0 0 1-1.042-.102l-2.287 2.29.972.972a.59.59 0 0 1 0 .831l-.195.195v.025l-.05.025a.395.395 0 0 0 .013.543.398.398 0 0 0 .558-.001l.23-.23a.587.587 0 0 1 .83 0l5.541 5.547a3.824 3.824 0 0 1 1.111 2.727 3.835 3.835 0 0 1-1.141 2.723 3.843 3.843 0 0 1-2.713 1.115 3.84 3.84 0 0 1-2.737-1.14l-5.512-5.518a.59.59 0 0 1 0-.829l.232-.233a.388.388 0 0 0 .115-.279.395.395 0 0 0-.673-.276l-.229.231a.602.602 0 0 1-.831 0l-.971-.973-2.288 2.29c.067.344.102.693.102 1.043A5.678 5.678 0 0 1 17.676 40a5.678 5.678 0 0 1-5.669-5.675 5.678 5.678 0 0 1 5.669-5.675c.351.001.701.035 1.042.102l10.024-10.035a5.642 5.642 0 0 1 .072-2.448 5.624 5.624 0 0 1 2.586-3.472 5.608 5.608 0 0 1 4.281-.624.586.586 0 0 1 .273.985l-2.822 2.825.718 2.152 2.15.717 2.823-2.823a.588.588 0 0 1 .716-.087.58.58 0 0 1 .266.361 5.66 5.66 0 0 1-5.476 7.046zm2.742 15.305a2.661 2.661 0 0 0 1.496-1.402 2.658 2.658 0 0 0 .13-1.863l-3.324 3.327a2.69 2.69 0 0 0 1.698-.062zM26.93 30.735a1.56 1.56 0 0 1 1.923.068c.321.269.519.648.555 1.064.034.38-.069.75-.29 1.055l5.113 5.117c.026.027.053.053.081.078l3.787-3.79a1.53 1.53 0 0 0-.078-.083l-5.107-5.117a1.562 1.562 0 0 1-1.924-.069 1.55 1.55 0 0 1-.554-1.064 1.56 1.56 0 0 1 .289-1.054l-.573-.573-3.796 3.794.574.574zm9.644-10.795a.593.593 0 0 1-.6.141l-2.773-.925a.588.588 0 0 1-.371-.371l-.924-2.775a.59.59 0 0 1 .141-.601l2.234-2.236c-.372 0-.741.047-1.102.139a4.447 4.447 0 0 0-2.74 2.056 4.46 4.46 0 0 0-.486 3.393.587.587 0 0 1-.153.558L19.32 29.81a.588.588 0 0 1-.557.154 4.541 4.541 0 0 0-2.234 0 4.537 4.537 0 0 0-3.271 5.509 4.503 4.503 0 0 0 2.075 2.778 4.49 4.49 0 0 0 3.429.495 4.496 4.496 0 0 0 2.775-2.075 4.502 4.502 0 0 0 .495-3.433.596.596 0 0 1 .154-.559l10.328-10.334h-.002l.154-.156a.593.593 0 0 1 .558-.155c.363.094.735.141 1.111.141h.021a4.48 4.48 0 0 0 4.45-4.47l-2.232 2.235zM21.238 31.59l-.83-.83.087-.088 10.254-10.263.83.83-.088.088L21.238 31.59zm-.286 3.037l-1.387 2.312a.588.588 0 0 1-.503.286H16.29a.586.586 0 0 1-.503-.287l-1.386-2.311a.587.587 0 0 1 0-.605l1.386-2.312a.586.586 0 0 1 .503-.285h2.772a.59.59 0 0 1 .503.285l1.387 2.312c.11.187.11.419 0 .605zM18.731 32.6h-2.109l-1.034 1.725 1.034 1.725h2.109l1.034-1.725-1.034-1.725zm12.76-1.928l4.708 4.713-.828.831-.089-.088-4.708-4.713.829-.831.088.088zm-7.76-7.957l-6.007-6.013a.599.599 0 0 1-.154-.273l-.402-1.607-2.629-1.503-1.214 1.216 1.5 2.629 1.605.403a.592.592 0 0 1 .274.155l6.094 6.1-.83.831-.088-.088-5.889-5.896-1.692-.423a.59.59 0 0 1-.367-.278l-1.849-3.239a.59.59 0 0 1 .101-.706l1.847-1.849a.588.588 0 0 1 .704-.094l3.235 1.85a.588.588 0 0 1 .278.366l.423 1.693 5.978 5.983-.83.831-.088-.088z"/>
</svg>
