<svg xmlns="http://www.w3.org/2000/svg" width="51" height="51">
    <path fill="#06101F" fill-rule="evenodd" d="M25.205.512c13.838 0 25.056 11.101 25.056 24.794 0 13.692-11.218 24.793-25.056 24.793C11.367 50.099.15 38.998.15 25.306.15 11.613 11.367.512 25.205.512z"/>
    <path fill="#FFF" fill-rule="evenodd" d="M39.544 17.947l-4.313 4.277c-.668.663-1.531 1.036-2.37 1.023l-1.278-.019-1.192 1.181a.66.66 0 0 1-.468.193.66.66 0 0 1-.469-.193.654.654 0 0 1 0-.93l1.39-1.378a.664.664 0 0 1 .478-.192l1.559.023c.478.005 1.003-.231 1.413-.638l4.313-4.277a.666.666 0 0 1 .937 0 .654.654 0 0 1 0 .93zm-6.673 2.311a.66.66 0 0 1-.469.193.66.66 0 0 1-.468-.193.654.654 0 0 1 0-.93l4.231-4.196a.666.666 0 0 1 .937 0 .654.654 0 0 1 0 .93l-4.231 4.196zm-1.883-2.242c-.416.413-.671.932-.683 1.388l-.036 1.486a.658.658 0 0 1-.193.45l-1.39 1.378a.667.667 0 0 1-.938 0 .655.655 0 0 1 0-.93l1.202-1.192.03-1.224c.019-.797.409-1.63 1.071-2.286l4.313-4.278a.668.668 0 0 1 .937 0 .654.654 0 0 1 0 .93l-4.313 4.278zm5.514 19.211a2.678 2.678 0 0 1-1.89.775 2.677 2.677 0 0 1-1.889-.775l-4.769-4.73a2.249 2.249 0 0 1-.46-2.53c.029-.062.042-.14.011-.171l-.804-.797a.138.138 0 0 0-.1-.041.14.14 0 0 0-.1.041 2.264 2.264 0 0 1-1.605.659 2.267 2.267 0 0 1-1.606-.659l-4.975-4.934c-2.485-2.466-3.705-4.913-3.624-7.273.062-1.836.931-2.917.968-2.962a.667.667 0 0 1 .983-.05l19.86 19.697a2.638 2.638 0 0 1 0 3.75zm-.937-2.82L16.323 15.323c-.498 1.211-.92 3.994 2.93 7.812l4.974 4.934a.944.944 0 0 0 .669.274.943.943 0 0 0 .668-.274 1.461 1.461 0 0 1 1.037-.426c.392 0 .76.151 1.037.426l.804.797c.425.421.526 1.068.258 1.648a.937.937 0 0 0 .192 1.053l4.768 4.73c.525.52 1.38.52 1.905 0a1.33 1.33 0 0 0 0-1.89zm-15.562-6.065a.667.667 0 0 1 .938 0 .654.654 0 0 1 0 .93l-5.12 5.078a1.323 1.323 0 0 0 0 1.889c.254.252.593.391.952.391.36 0 .698-.139.953-.391l5.304-5.261a.668.668 0 0 1 .937 0 .655.655 0 0 1 .001.93l-5.305 5.261a2.663 2.663 0 0 1-1.89.776 2.667 2.667 0 0 1-1.89-.776 2.625 2.625 0 0 1-.782-1.874c0-.709.278-1.374.782-1.875l5.12-5.078z"/>
</svg>
