<svg xmlns="http://www.w3.org/2000/svg" width="24" height="21">
    <path fill="#153064" fill-rule="evenodd" d="M23.138.025L.383 11.496c-.362.123-.482.493-.362.74.121.123.241.246.362.246l6.381 2.097c.24.123.481 0 .602-.123l7.223-5.92a.572.572 0 0 1 .843 0c.241.246.241.493 0 .74l-5.297 6.413v4.687c0 .246.241.616.481.616a.908.908 0 0 0 .602-.246l3.131-3.207c.12-.123.481-.247.722-.123l4.575 1.48c.361.123.602 0 .843-.247v-.123L23.98.765c.121-.246-.12-.616-.481-.616-.12-.247-.241-.124-.361-.124z"/>
</svg>
